<?xml version="1.0" encoding="UTF-8"?>
<svg id="Ebene_2" data-name="Ebene 2" xmlns="http://www.w3.org/2000/svg" viewBox="0 0 455.54 222.86">
  <defs>
    <style>
      .cls-1 {
        fill: #5d3399;
      }
    </style>
  </defs>
  <g id="Assets">
    <g id="Logo">
      <path class="cls-1" d="m297.95,44.8c-36.8,0-66.63,29.83-66.63,66.63s29.83,66.63,66.63,66.63c36.8,0,66.63-29.83,66.63-66.63s-29.83-66.63-66.63-66.63Zm0,118.4c-28.55,0-51.77-23.23-51.77-51.77s23.23-51.77,51.77-51.77,51.77,23.23,51.77,51.77-23.23,51.77-51.77,51.77Z"/>
      <path class="cls-1" d="m376.74,32.64C355.7,11.59,327.72,0,297.96,0s-57.54,11.51-78.51,32.35l-.84.84-57.24,57.23,10.51,10.51,57.51-57.51.5-.49c18.21-18.11,42.39-28.08,68.08-28.08s50.04,10.04,68.28,28.28l39.37,39.37,28.91,28.92-28.91,28.92-39.37,39.37c-18.24,18.23-42.49,28.28-68.28,28.28s-50.05-10.04-68.29-28.28l-39.35-39.36-76.21-76.21c-10.95-10.95-25.04-17.64-40.23-19.22-2.33-.25-4.68-.37-7.04-.37s-4.72.12-7.05.37c-6.43.66-12.67,2.25-18.54,4.68-8.01,3.32-15.37,8.21-21.68,14.53C8.32,75.39,1.93,89.65.38,104.34c-.51,4.71-.51,9.47,0,14.18,1.55,14.69,7.94,28.95,19.18,40.18,11.23,11.23,25.49,17.62,40.18,19.18,4.71.51,9.47.51,14.18,0,14.69-1.56,28.95-7.94,40.18-19.18l26.26-26.26-10.51-10.51-26.03,26.03-.39.4c-10.12,10.02-23.37,15.05-36.61,15.05s-26.36-4.96-36.46-14.9c-.11-.1-.21-.2-.32-.31-.15-.16-.31-.31-.46-.47l-.46-.47c-9.24-9.71-14.31-22.38-14.31-35.85,0-6.94,1.35-13.68,3.93-19.91,2.54-6.13,6.27-11.77,11.06-16.63l.47-.46c9.8-9.69,22.75-15.01,36.54-15.01s26.94,5.41,36.77,15.23l65.84,65.84,49.73,49.72c21.04,21.05,49.03,32.64,78.79,32.64s57.75-11.59,78.78-32.64l78.8-78.79-78.8-78.79Z"/>
    </g>
  </g>
</svg>